<mxfile host="app.diagrams.net" modified="2023-12-25T21:51:17.014Z" agent="Mozilla/5.0 (Windows NT 10.0; Win64; x64) AppleWebKit/537.36 (KHTML, like Gecko) Chrome/120.0.0.0 Safari/537.36 Edg/120.0.0.0" etag="e3KMRQS7d33i6-uGHVOj" version="22.1.11" type="github" pages="2">
  <diagram id="AKWlTz2mSxcjTzdAWuAO" name="To-Do">
    <mxGraphModel dx="4337" dy="3852" grid="1" gridSize="10" guides="1" tooltips="1" connect="1" arrows="1" fold="1" page="1" pageScale="1" pageWidth="3300" pageHeight="2339" math="0" shadow="0">
      <root>
        <mxCell id="0" />
        <mxCell id="1" parent="0" />
        <mxCell id="QaKG1DUlKXENoOnH2Ax_-1" value="" style="swimlane;startSize=20;horizontal=1;containerType=tree;strokeColor=none;swimlaneHead=0;swimlaneBody=1;resizeWidth=0;fixedWidth=0;" vertex="1" parent="1">
          <mxGeometry x="-3290" y="-1960" width="8540" height="3560" as="geometry">
            <mxRectangle x="115" y="-50" width="50" height="40" as="alternateBounds" />
          </mxGeometry>
        </mxCell>
        <mxCell id="QaKG1DUlKXENoOnH2Ax_-6" value="Central Idea" style="ellipse;whiteSpace=wrap;html=1;align=center;treeFolding=1;treeMoving=1;newEdgeStyle={&quot;edgeStyle&quot;:&quot;entityRelationEdgeStyle&quot;,&quot;startArrow&quot;:&quot;none&quot;,&quot;endArrow&quot;:&quot;none&quot;,&quot;segment&quot;:10,&quot;curved&quot;:1,&quot;sourcePerimeterSpacing&quot;:0,&quot;targetPerimeterSpacing&quot;:0};fillColor=#dae8fc;strokeColor=#6c8ebf;" vertex="1" parent="QaKG1DUlKXENoOnH2Ax_-1">
          <mxGeometry x="1640" y="1220" width="120" height="60" as="geometry" />
        </mxCell>
        <mxCell id="QaKG1DUlKXENoOnH2Ax_-23" value="" style="edgeStyle=entityRelationEdgeStyle;startArrow=none;endArrow=none;segment=10;curved=1;sourcePerimeterSpacing=0;targetPerimeterSpacing=0;rounded=0;" edge="1" target="QaKG1DUlKXENoOnH2Ax_-24" source="QaKG1DUlKXENoOnH2Ax_-6" parent="QaKG1DUlKXENoOnH2Ax_-1">
          <mxGeometry relative="1" as="geometry">
            <mxPoint x="1780" y="1435" as="sourcePoint" />
          </mxGeometry>
        </mxCell>
        <mxCell id="QaKG1DUlKXENoOnH2Ax_-24" value="Books" style="whiteSpace=wrap;html=1;rounded=1;arcSize=50;align=center;verticalAlign=middle;strokeWidth=1;autosize=1;spacing=4;treeFolding=1;treeMoving=1;newEdgeStyle={&quot;edgeStyle&quot;:&quot;entityRelationEdgeStyle&quot;,&quot;startArrow&quot;:&quot;none&quot;,&quot;endArrow&quot;:&quot;none&quot;,&quot;segment&quot;:10,&quot;curved&quot;:1,&quot;sourcePerimeterSpacing&quot;:0,&quot;targetPerimeterSpacing&quot;:0};fillColor=#f5f5f5;strokeColor=#666666;fontColor=#333333;" vertex="1" parent="QaKG1DUlKXENoOnH2Ax_-1">
          <mxGeometry x="1870" y="1245" width="105" height="50" as="geometry" />
        </mxCell>
        <mxCell id="QaKG1DUlKXENoOnH2Ax_-74" value="" style="edgeStyle=entityRelationEdgeStyle;startArrow=none;endArrow=none;segment=10;curved=1;sourcePerimeterSpacing=0;targetPerimeterSpacing=0;rounded=0;fillColor=#f5f5f5;strokeColor=#666666;" edge="1" target="QaKG1DUlKXENoOnH2Ax_-75" source="QaKG1DUlKXENoOnH2Ax_-24" parent="QaKG1DUlKXENoOnH2Ax_-1">
          <mxGeometry relative="1" as="geometry">
            <mxPoint x="1790" y="1220" as="sourcePoint" />
          </mxGeometry>
        </mxCell>
        <mxCell id="QaKG1DUlKXENoOnH2Ax_-75" value="First" style="whiteSpace=wrap;html=1;rounded=1;arcSize=50;align=center;verticalAlign=bottom;strokeWidth=1;autosize=1;spacing=4;treeFolding=1;treeMoving=1;newEdgeStyle={&quot;edgeStyle&quot;:&quot;entityRelationEdgeStyle&quot;,&quot;startArrow&quot;:&quot;none&quot;,&quot;endArrow&quot;:&quot;none&quot;,&quot;segment&quot;:10,&quot;curved&quot;:1,&quot;sourcePerimeterSpacing&quot;:0,&quot;targetPerimeterSpacing&quot;:0};fillColor=#f5f5f5;strokeColor=#666666;fontColor=#333333;shape=partialRectangle;top=0;left=0;bottom=1;right=0;points=[[0,1],[1,1]];routingCenterY=0.5;snapToPoint=1;recursiveResize=0;" vertex="1" parent="QaKG1DUlKXENoOnH2Ax_-1">
          <mxGeometry x="2020" y="1150" width="70" height="30" as="geometry" />
        </mxCell>
        <mxCell id="QaKG1DUlKXENoOnH2Ax_-76" value="" style="edgeStyle=entityRelationEdgeStyle;startArrow=none;endArrow=none;segment=10;curved=1;sourcePerimeterSpacing=0;targetPerimeterSpacing=0;rounded=0;fillColor=#f5f5f5;strokeColor=#666666;" edge="1" target="QaKG1DUlKXENoOnH2Ax_-77" source="QaKG1DUlKXENoOnH2Ax_-24" parent="QaKG1DUlKXENoOnH2Ax_-1">
          <mxGeometry relative="1" as="geometry">
            <mxPoint x="2010" y="1240" as="sourcePoint" />
          </mxGeometry>
        </mxCell>
        <mxCell id="QaKG1DUlKXENoOnH2Ax_-77" value="A Purpose driven life" style="whiteSpace=wrap;html=1;rounded=1;arcSize=50;align=center;verticalAlign=bottom;strokeWidth=1;autosize=1;spacing=4;treeFolding=1;treeMoving=1;newEdgeStyle={&quot;edgeStyle&quot;:&quot;entityRelationEdgeStyle&quot;,&quot;startArrow&quot;:&quot;none&quot;,&quot;endArrow&quot;:&quot;none&quot;,&quot;segment&quot;:10,&quot;curved&quot;:1,&quot;sourcePerimeterSpacing&quot;:0,&quot;targetPerimeterSpacing&quot;:0};fillColor=#f5f5f5;strokeColor=#666666;fontColor=#333333;shape=partialRectangle;top=0;left=0;bottom=1;right=0;points=[[0,1],[1,1]];routingCenterY=0.5;snapToPoint=1;recursiveResize=0;" vertex="1" parent="QaKG1DUlKXENoOnH2Ax_-1">
          <mxGeometry x="2020" y="1220" width="150" height="30" as="geometry" />
        </mxCell>
        <mxCell id="QaKG1DUlKXENoOnH2Ax_-78" value="" style="edgeStyle=entityRelationEdgeStyle;startArrow=none;endArrow=none;segment=10;curved=1;sourcePerimeterSpacing=0;targetPerimeterSpacing=0;rounded=0;fillColor=#f5f5f5;strokeColor=#666666;" edge="1" target="QaKG1DUlKXENoOnH2Ax_-79" source="QaKG1DUlKXENoOnH2Ax_-24" parent="QaKG1DUlKXENoOnH2Ax_-1">
          <mxGeometry relative="1" as="geometry">
            <mxPoint x="2010" y="1240" as="sourcePoint" />
          </mxGeometry>
        </mxCell>
        <mxCell id="QaKG1DUlKXENoOnH2Ax_-79" value="Surrounded by idiots" style="whiteSpace=wrap;html=1;rounded=1;arcSize=50;align=center;verticalAlign=bottom;strokeWidth=1;autosize=1;spacing=4;treeFolding=1;treeMoving=1;newEdgeStyle={&quot;edgeStyle&quot;:&quot;entityRelationEdgeStyle&quot;,&quot;startArrow&quot;:&quot;none&quot;,&quot;endArrow&quot;:&quot;none&quot;,&quot;segment&quot;:10,&quot;curved&quot;:1,&quot;sourcePerimeterSpacing&quot;:0,&quot;targetPerimeterSpacing&quot;:0};fillColor=#f5f5f5;strokeColor=#666666;fontColor=#333333;shape=partialRectangle;top=0;left=0;bottom=1;right=0;points=[[0,1],[1,1]];routingCenterY=0.5;snapToPoint=1;recursiveResize=0;" vertex="1" parent="QaKG1DUlKXENoOnH2Ax_-1">
          <mxGeometry x="2020" y="1290" width="150" height="30" as="geometry" />
        </mxCell>
        <mxCell id="QaKG1DUlKXENoOnH2Ax_-80" value="" style="edgeStyle=entityRelationEdgeStyle;startArrow=none;endArrow=none;segment=10;curved=1;sourcePerimeterSpacing=0;targetPerimeterSpacing=0;rounded=0;fillColor=#f5f5f5;strokeColor=#666666;" edge="1" target="QaKG1DUlKXENoOnH2Ax_-81" source="QaKG1DUlKXENoOnH2Ax_-24" parent="QaKG1DUlKXENoOnH2Ax_-1">
          <mxGeometry relative="1" as="geometry">
            <mxPoint x="2010" y="1240" as="sourcePoint" />
          </mxGeometry>
        </mxCell>
        <mxCell id="QaKG1DUlKXENoOnH2Ax_-81" value="Atomic Habits" style="whiteSpace=wrap;html=1;rounded=1;arcSize=50;align=center;verticalAlign=bottom;strokeWidth=1;autosize=1;spacing=4;treeFolding=1;treeMoving=1;newEdgeStyle={&quot;edgeStyle&quot;:&quot;entityRelationEdgeStyle&quot;,&quot;startArrow&quot;:&quot;none&quot;,&quot;endArrow&quot;:&quot;none&quot;,&quot;segment&quot;:10,&quot;curved&quot;:1,&quot;sourcePerimeterSpacing&quot;:0,&quot;targetPerimeterSpacing&quot;:0};fillColor=#f5f5f5;strokeColor=#666666;fontColor=#333333;shape=partialRectangle;top=0;left=0;bottom=1;right=0;points=[[0,1],[1,1]];routingCenterY=0.5;snapToPoint=1;recursiveResize=0;" vertex="1" parent="QaKG1DUlKXENoOnH2Ax_-1">
          <mxGeometry x="2020" y="1360" width="120" height="30" as="geometry" />
        </mxCell>
        <mxCell id="QaKG1DUlKXENoOnH2Ax_-2" value="" style="edgeStyle=entityRelationEdgeStyle;startArrow=none;endArrow=none;segment=10;curved=1;sourcePerimeterSpacing=0;targetPerimeterSpacing=0;rounded=0;" edge="1" parent="QaKG1DUlKXENoOnH2Ax_-1" source="QaKG1DUlKXENoOnH2Ax_-6" target="1TPRufiQtqwAdw8czUBt-2">
          <mxGeometry relative="1" as="geometry" />
        </mxCell>
        <mxCell id="1TPRufiQtqwAdw8czUBt-2" value="New Words" style="whiteSpace=wrap;html=1;rounded=1;arcSize=50;align=center;verticalAlign=middle;strokeWidth=1;autosize=1;spacing=4;treeFolding=1;treeMoving=1;newEdgeStyle={&quot;edgeStyle&quot;:&quot;entityRelationEdgeStyle&quot;,&quot;startArrow&quot;:&quot;none&quot;,&quot;endArrow&quot;:&quot;none&quot;,&quot;segment&quot;:10,&quot;curved&quot;:1,&quot;sourcePerimeterSpacing&quot;:0,&quot;targetPerimeterSpacing&quot;:0};fillColor=#ffe6cc;strokeColor=#d79b00;" vertex="1" parent="QaKG1DUlKXENoOnH2Ax_-1">
          <mxGeometry x="1790" y="1525" width="125" height="50" as="geometry" />
        </mxCell>
        <mxCell id="QaKG1DUlKXENoOnH2Ax_-25" value="" style="edgeStyle=entityRelationEdgeStyle;startArrow=none;endArrow=none;segment=10;curved=1;sourcePerimeterSpacing=0;targetPerimeterSpacing=0;rounded=0;" edge="1" target="QaKG1DUlKXENoOnH2Ax_-26" source="QaKG1DUlKXENoOnH2Ax_-6" parent="QaKG1DUlKXENoOnH2Ax_-1">
          <mxGeometry relative="1" as="geometry">
            <mxPoint x="1780" y="1435" as="sourcePoint" />
          </mxGeometry>
        </mxCell>
        <mxCell id="QaKG1DUlKXENoOnH2Ax_-26" value="TIWIL" style="whiteSpace=wrap;html=1;rounded=1;arcSize=50;align=center;verticalAlign=middle;strokeWidth=1;autosize=1;spacing=4;treeFolding=1;treeMoving=1;newEdgeStyle={&quot;edgeStyle&quot;:&quot;entityRelationEdgeStyle&quot;,&quot;startArrow&quot;:&quot;none&quot;,&quot;endArrow&quot;:&quot;none&quot;,&quot;segment&quot;:10,&quot;curved&quot;:1,&quot;sourcePerimeterSpacing&quot;:0,&quot;targetPerimeterSpacing&quot;:0};fillColor=#d5e8d4;strokeColor=#82b366;flipH=0;flipV=1;" vertex="1" parent="QaKG1DUlKXENoOnH2Ax_-1">
          <mxGeometry x="1460" y="1510" width="125" height="45" as="geometry" />
        </mxCell>
        <mxCell id="QaKG1DUlKXENoOnH2Ax_-90" value="" style="edgeStyle=entityRelationEdgeStyle;startArrow=none;endArrow=none;segment=10;curved=1;sourcePerimeterSpacing=0;targetPerimeterSpacing=0;rounded=0;noEdgeStyle=1;orthogonal=1;" edge="1" target="QaKG1DUlKXENoOnH2Ax_-91" source="QaKG1DUlKXENoOnH2Ax_-26" parent="QaKG1DUlKXENoOnH2Ax_-1">
          <mxGeometry relative="1" as="geometry">
            <mxPoint x="2080" y="1990" as="sourcePoint" />
            <Array as="points">
              <mxPoint x="1448" y="1512.142857142857" />
              <mxPoint x="1372" y="1405" />
            </Array>
          </mxGeometry>
        </mxCell>
        <mxCell id="QaKG1DUlKXENoOnH2Ax_-91" value="Milanote" style="whiteSpace=wrap;html=1;rounded=1;arcSize=50;align=center;verticalAlign=bottom;strokeWidth=1;autosize=1;spacing=4;treeFolding=1;treeMoving=1;newEdgeStyle={&quot;edgeStyle&quot;:&quot;entityRelationEdgeStyle&quot;,&quot;startArrow&quot;:&quot;none&quot;,&quot;endArrow&quot;:&quot;none&quot;,&quot;segment&quot;:10,&quot;curved&quot;:1,&quot;sourcePerimeterSpacing&quot;:0,&quot;targetPerimeterSpacing&quot;:0};fillColor=#d5e8d4;strokeColor=#82b366;shape=partialRectangle;top=0;left=0;bottom=1;right=0;points=[[0,1],[1,1]];routingCenterY=0.5;snapToPoint=1;recursiveResize=0;direction=west;flipH=1;flipV=1;" vertex="1" parent="QaKG1DUlKXENoOnH2Ax_-1">
          <mxGeometry x="1235" y="1390" width="90" height="30" as="geometry" />
        </mxCell>
        <mxCell id="QaKG1DUlKXENoOnH2Ax_-94" value="" style="edgeStyle=entityRelationEdgeStyle;startArrow=none;endArrow=none;segment=10;curved=1;sourcePerimeterSpacing=0;targetPerimeterSpacing=0;rounded=0;noEdgeStyle=1;orthogonal=1;" edge="1" target="QaKG1DUlKXENoOnH2Ax_-95" source="QaKG1DUlKXENoOnH2Ax_-26" parent="QaKG1DUlKXENoOnH2Ax_-1">
          <mxGeometry relative="1" as="geometry">
            <mxPoint x="2260" y="2000" as="sourcePoint" />
            <Array as="points">
              <mxPoint x="1446" y="1516.4285714285716" />
              <mxPoint x="1372" y="1445" />
            </Array>
          </mxGeometry>
        </mxCell>
        <mxCell id="QaKG1DUlKXENoOnH2Ax_-95" value="What Unit CSS" style="whiteSpace=wrap;html=1;rounded=1;arcSize=50;align=center;verticalAlign=bottom;strokeWidth=1;autosize=1;spacing=4;treeFolding=1;treeMoving=1;newEdgeStyle={&quot;edgeStyle&quot;:&quot;entityRelationEdgeStyle&quot;,&quot;startArrow&quot;:&quot;none&quot;,&quot;endArrow&quot;:&quot;none&quot;,&quot;segment&quot;:10,&quot;curved&quot;:1,&quot;sourcePerimeterSpacing&quot;:0,&quot;targetPerimeterSpacing&quot;:0};fillColor=#d5e8d4;strokeColor=#82b366;shape=partialRectangle;top=0;left=0;bottom=1;right=0;points=[[0,1],[1,1]];routingCenterY=0.5;snapToPoint=1;recursiveResize=0;direction=west;flipH=1;flipV=1;" vertex="1" parent="QaKG1DUlKXENoOnH2Ax_-1">
          <mxGeometry x="1215" y="1430" width="130" height="30" as="geometry" />
        </mxCell>
        <mxCell id="QaKG1DUlKXENoOnH2Ax_-96" value="" style="edgeStyle=entityRelationEdgeStyle;startArrow=none;endArrow=none;segment=10;curved=1;sourcePerimeterSpacing=0;targetPerimeterSpacing=0;rounded=0;noEdgeStyle=1;orthogonal=1;" edge="1" target="QaKG1DUlKXENoOnH2Ax_-97" source="QaKG1DUlKXENoOnH2Ax_-26" parent="QaKG1DUlKXENoOnH2Ax_-1">
          <mxGeometry relative="1" as="geometry">
            <mxPoint x="2240" y="2040" as="sourcePoint" />
            <Array as="points">
              <mxPoint x="1444" y="1520.7142857142858" />
              <mxPoint x="1372" y="1485" />
            </Array>
          </mxGeometry>
        </mxCell>
        <mxCell id="QaKG1DUlKXENoOnH2Ax_-97" value="GPTZero" style="whiteSpace=wrap;html=1;rounded=1;arcSize=50;align=center;verticalAlign=bottom;strokeWidth=1;autosize=1;spacing=4;treeFolding=1;treeMoving=1;newEdgeStyle={&quot;edgeStyle&quot;:&quot;entityRelationEdgeStyle&quot;,&quot;startArrow&quot;:&quot;none&quot;,&quot;endArrow&quot;:&quot;none&quot;,&quot;segment&quot;:10,&quot;curved&quot;:1,&quot;sourcePerimeterSpacing&quot;:0,&quot;targetPerimeterSpacing&quot;:0};fillColor=#d5e8d4;strokeColor=#82b366;shape=partialRectangle;top=0;left=0;bottom=1;right=0;points=[[0,1],[1,1]];routingCenterY=0.5;snapToPoint=1;recursiveResize=0;direction=west;flipH=1;flipV=1;" vertex="1" parent="QaKG1DUlKXENoOnH2Ax_-1">
          <mxGeometry x="1235" y="1470" width="90" height="30" as="geometry" />
        </mxCell>
        <mxCell id="QaKG1DUlKXENoOnH2Ax_-98" value="" style="edgeStyle=entityRelationEdgeStyle;startArrow=none;endArrow=none;segment=10;curved=1;sourcePerimeterSpacing=0;targetPerimeterSpacing=0;rounded=0;noEdgeStyle=1;orthogonal=1;" edge="1" target="QaKG1DUlKXENoOnH2Ax_-99" source="QaKG1DUlKXENoOnH2Ax_-26" parent="QaKG1DUlKXENoOnH2Ax_-1">
          <mxGeometry relative="1" as="geometry">
            <mxPoint x="2235" y="2080" as="sourcePoint" />
            <Array as="points">
              <mxPoint x="1442" y="1525" />
              <mxPoint x="1372" y="1525" />
            </Array>
          </mxGeometry>
        </mxCell>
        <mxCell id="QaKG1DUlKXENoOnH2Ax_-99" value="Codux" style="whiteSpace=wrap;html=1;rounded=1;arcSize=50;align=center;verticalAlign=bottom;strokeWidth=1;autosize=1;spacing=4;treeFolding=1;treeMoving=1;newEdgeStyle={&quot;edgeStyle&quot;:&quot;entityRelationEdgeStyle&quot;,&quot;startArrow&quot;:&quot;none&quot;,&quot;endArrow&quot;:&quot;none&quot;,&quot;segment&quot;:10,&quot;curved&quot;:1,&quot;sourcePerimeterSpacing&quot;:0,&quot;targetPerimeterSpacing&quot;:0};fillColor=#d5e8d4;strokeColor=#82b366;shape=partialRectangle;top=0;left=0;bottom=1;right=0;points=[[0,1],[1,1]];routingCenterY=0.5;snapToPoint=1;recursiveResize=0;direction=west;flipH=1;flipV=1;" vertex="1" parent="QaKG1DUlKXENoOnH2Ax_-1">
          <mxGeometry x="1240" y="1510" width="80" height="30" as="geometry" />
        </mxCell>
        <mxCell id="QaKG1DUlKXENoOnH2Ax_-106" value="" style="edgeStyle=entityRelationEdgeStyle;startArrow=none;endArrow=none;segment=10;curved=1;sourcePerimeterSpacing=0;targetPerimeterSpacing=0;rounded=0;noEdgeStyle=1;orthogonal=1;" edge="1" target="QaKG1DUlKXENoOnH2Ax_-107" source="QaKG1DUlKXENoOnH2Ax_-26" parent="QaKG1DUlKXENoOnH2Ax_-1">
          <mxGeometry relative="1" as="geometry">
            <mxPoint x="2265" y="2120" as="sourcePoint" />
            <Array as="points">
              <mxPoint x="1444" y="1529.2857142857142" />
              <mxPoint x="1372" y="1565" />
            </Array>
          </mxGeometry>
        </mxCell>
        <mxCell id="QaKG1DUlKXENoOnH2Ax_-107" value="Draw.io integration" style="whiteSpace=wrap;html=1;rounded=1;arcSize=50;align=center;verticalAlign=bottom;strokeWidth=1;autosize=1;spacing=4;treeFolding=1;treeMoving=1;newEdgeStyle={&quot;edgeStyle&quot;:&quot;entityRelationEdgeStyle&quot;,&quot;startArrow&quot;:&quot;none&quot;,&quot;endArrow&quot;:&quot;none&quot;,&quot;segment&quot;:10,&quot;curved&quot;:1,&quot;sourcePerimeterSpacing&quot;:0,&quot;targetPerimeterSpacing&quot;:0};fillColor=#d5e8d4;strokeColor=#82b366;shape=partialRectangle;top=0;left=0;bottom=1;right=0;points=[[0,1],[1,1]];routingCenterY=0.5;snapToPoint=1;recursiveResize=0;direction=west;flipH=1;flipV=1;" vertex="1" parent="QaKG1DUlKXENoOnH2Ax_-1">
          <mxGeometry x="1210" y="1550" width="140" height="30" as="geometry" />
        </mxCell>
        <mxCell id="QaKG1DUlKXENoOnH2Ax_-108" value="" style="edgeStyle=entityRelationEdgeStyle;startArrow=none;endArrow=none;segment=10;curved=1;sourcePerimeterSpacing=0;targetPerimeterSpacing=0;rounded=0;noEdgeStyle=1;orthogonal=1;" edge="1" target="QaKG1DUlKXENoOnH2Ax_-109" source="QaKG1DUlKXENoOnH2Ax_-26" parent="QaKG1DUlKXENoOnH2Ax_-1">
          <mxGeometry relative="1" as="geometry">
            <mxPoint x="2265" y="2160" as="sourcePoint" />
            <Array as="points">
              <mxPoint x="1446" y="1533.5714285714284" />
              <mxPoint x="1372" y="1605" />
            </Array>
          </mxGeometry>
        </mxCell>
        <mxCell id="QaKG1DUlKXENoOnH2Ax_-109" value="Drastic measures" style="whiteSpace=wrap;html=1;rounded=1;arcSize=50;align=center;verticalAlign=bottom;strokeWidth=1;autosize=1;spacing=4;treeFolding=1;treeMoving=1;newEdgeStyle={&quot;edgeStyle&quot;:&quot;entityRelationEdgeStyle&quot;,&quot;startArrow&quot;:&quot;none&quot;,&quot;endArrow&quot;:&quot;none&quot;,&quot;segment&quot;:10,&quot;curved&quot;:1,&quot;sourcePerimeterSpacing&quot;:0,&quot;targetPerimeterSpacing&quot;:0};fillColor=#d5e8d4;strokeColor=#82b366;shape=partialRectangle;top=0;left=0;bottom=1;right=0;points=[[0,1],[1,1]];routingCenterY=0.5;snapToPoint=1;recursiveResize=0;direction=west;flipH=1;flipV=1;" vertex="1" parent="QaKG1DUlKXENoOnH2Ax_-1">
          <mxGeometry x="1210" y="1590" width="140" height="30" as="geometry" />
        </mxCell>
        <mxCell id="QaKG1DUlKXENoOnH2Ax_-92" value="" style="edgeStyle=entityRelationEdgeStyle;startArrow=none;endArrow=none;segment=10;curved=1;sourcePerimeterSpacing=0;targetPerimeterSpacing=0;rounded=0;noEdgeStyle=1;orthogonal=1;" edge="1" target="QaKG1DUlKXENoOnH2Ax_-93" source="QaKG1DUlKXENoOnH2Ax_-26" parent="QaKG1DUlKXENoOnH2Ax_-1">
          <mxGeometry relative="1" as="geometry">
            <mxPoint x="2505" y="1805" as="sourcePoint" />
            <Array as="points">
              <mxPoint x="1448" y="1537.857142857143" />
              <mxPoint x="1372" y="1645" />
            </Array>
          </mxGeometry>
        </mxCell>
        <mxCell id="QaKG1DUlKXENoOnH2Ax_-93" value="CSS Selectors Visual" style="whiteSpace=wrap;html=1;rounded=1;arcSize=50;align=center;verticalAlign=bottom;strokeWidth=1;autosize=1;spacing=4;treeFolding=1;treeMoving=1;newEdgeStyle={&quot;edgeStyle&quot;:&quot;entityRelationEdgeStyle&quot;,&quot;startArrow&quot;:&quot;none&quot;,&quot;endArrow&quot;:&quot;none&quot;,&quot;segment&quot;:10,&quot;curved&quot;:1,&quot;sourcePerimeterSpacing&quot;:0,&quot;targetPerimeterSpacing&quot;:0};fillColor=#d5e8d4;strokeColor=#82b366;shape=partialRectangle;top=0;left=0;bottom=1;right=0;points=[[0,1],[1,1]];routingCenterY=0.5;snapToPoint=1;recursiveResize=0;" vertex="1" parent="QaKG1DUlKXENoOnH2Ax_-1">
          <mxGeometry x="1200" y="1630" width="160" height="30" as="geometry" />
        </mxCell>
        <mxCell id="QaKG1DUlKXENoOnH2Ax_-27" value="" style="edgeStyle=entityRelationEdgeStyle;startArrow=none;endArrow=none;segment=10;curved=1;sourcePerimeterSpacing=0;targetPerimeterSpacing=0;rounded=0;" edge="1" target="QaKG1DUlKXENoOnH2Ax_-28" source="QaKG1DUlKXENoOnH2Ax_-6" parent="QaKG1DUlKXENoOnH2Ax_-1">
          <mxGeometry relative="1" as="geometry">
            <mxPoint x="3715" y="3335" as="sourcePoint" />
          </mxGeometry>
        </mxCell>
        <mxCell id="QaKG1DUlKXENoOnH2Ax_-28" value="Blogs" style="whiteSpace=wrap;html=1;rounded=1;arcSize=50;align=center;verticalAlign=middle;strokeWidth=1;autosize=1;spacing=4;treeFolding=1;treeMoving=1;newEdgeStyle={&quot;edgeStyle&quot;:&quot;entityRelationEdgeStyle&quot;,&quot;startArrow&quot;:&quot;none&quot;,&quot;endArrow&quot;:&quot;none&quot;,&quot;segment&quot;:10,&quot;curved&quot;:1,&quot;sourcePerimeterSpacing&quot;:0,&quot;targetPerimeterSpacing&quot;:0};fillColor=#e1d5e7;strokeColor=#9673a6;" vertex="1" parent="QaKG1DUlKXENoOnH2Ax_-1">
          <mxGeometry x="1460" y="920" width="105" height="50" as="geometry" />
        </mxCell>
        <mxCell id="QaKG1DUlKXENoOnH2Ax_-86" value="" style="edgeStyle=entityRelationEdgeStyle;startArrow=none;endArrow=none;segment=10;curved=1;sourcePerimeterSpacing=0;targetPerimeterSpacing=0;rounded=0;noEdgeStyle=1;orthogonal=1;" edge="1" target="QaKG1DUlKXENoOnH2Ax_-87" source="QaKG1DUlKXENoOnH2Ax_-28" parent="QaKG1DUlKXENoOnH2Ax_-1">
          <mxGeometry relative="1" as="geometry">
            <mxPoint x="2030" y="665" as="sourcePoint" />
            <Array as="points">
              <mxPoint x="1446" y="931.25" />
              <mxPoint x="1372" y="915" />
            </Array>
          </mxGeometry>
        </mxCell>
        <mxCell id="QaKG1DUlKXENoOnH2Ax_-87" value="Advent of Typescript" style="whiteSpace=wrap;html=1;rounded=1;arcSize=50;align=center;verticalAlign=bottom;strokeWidth=1;autosize=1;spacing=4;treeFolding=1;treeMoving=1;newEdgeStyle={&quot;edgeStyle&quot;:&quot;entityRelationEdgeStyle&quot;,&quot;startArrow&quot;:&quot;none&quot;,&quot;endArrow&quot;:&quot;none&quot;,&quot;segment&quot;:10,&quot;curved&quot;:1,&quot;sourcePerimeterSpacing&quot;:0,&quot;targetPerimeterSpacing&quot;:0};fillColor=#e1d5e7;strokeColor=#9673a6;shape=partialRectangle;top=0;left=0;bottom=1;right=0;points=[[0,1],[1,1]];routingCenterY=0.5;snapToPoint=1;recursiveResize=0;" vertex="1" parent="QaKG1DUlKXENoOnH2Ax_-1">
          <mxGeometry x="1205" y="900" width="150" height="30" as="geometry" />
        </mxCell>
        <mxCell id="QaKG1DUlKXENoOnH2Ax_-84" value="" style="edgeStyle=entityRelationEdgeStyle;startArrow=none;endArrow=none;segment=10;curved=1;sourcePerimeterSpacing=0;targetPerimeterSpacing=0;rounded=0;noEdgeStyle=1;orthogonal=1;" edge="1" target="QaKG1DUlKXENoOnH2Ax_-85" source="QaKG1DUlKXENoOnH2Ax_-28" parent="QaKG1DUlKXENoOnH2Ax_-1">
          <mxGeometry relative="1" as="geometry">
            <mxPoint x="2030" y="665" as="sourcePoint" />
            <Array as="points">
              <mxPoint x="1446" y="938.75" />
              <mxPoint x="1372" y="955" />
            </Array>
          </mxGeometry>
        </mxCell>
        <mxCell id="QaKG1DUlKXENoOnH2Ax_-85" value="Raycast" style="whiteSpace=wrap;html=1;rounded=1;arcSize=50;align=center;verticalAlign=bottom;strokeWidth=1;autosize=1;spacing=4;treeFolding=1;treeMoving=1;newEdgeStyle={&quot;edgeStyle&quot;:&quot;entityRelationEdgeStyle&quot;,&quot;startArrow&quot;:&quot;none&quot;,&quot;endArrow&quot;:&quot;none&quot;,&quot;segment&quot;:10,&quot;curved&quot;:1,&quot;sourcePerimeterSpacing&quot;:0,&quot;targetPerimeterSpacing&quot;:0};fillColor=#e1d5e7;strokeColor=#9673a6;shape=partialRectangle;top=0;left=0;bottom=1;right=0;points=[[0,1],[1,1]];routingCenterY=0.5;snapToPoint=1;recursiveResize=0;" vertex="1" parent="QaKG1DUlKXENoOnH2Ax_-1">
          <mxGeometry x="1235" y="940" width="90" height="30" as="geometry" />
        </mxCell>
        <mxCell id="QaKG1DUlKXENoOnH2Ax_-82" value="" style="edgeStyle=entityRelationEdgeStyle;startArrow=none;endArrow=none;segment=10;curved=1;sourcePerimeterSpacing=0;targetPerimeterSpacing=0;rounded=0;noEdgeStyle=1;orthogonal=1;" edge="1" target="QaKG1DUlKXENoOnH2Ax_-83" source="QaKG1DUlKXENoOnH2Ax_-28" parent="QaKG1DUlKXENoOnH2Ax_-1">
          <mxGeometry relative="1" as="geometry">
            <mxPoint x="2185" y="780" as="sourcePoint" />
            <Array as="points">
              <mxPoint x="1448" y="946.25" />
              <mxPoint x="1372" y="995" />
            </Array>
          </mxGeometry>
        </mxCell>
        <mxCell id="QaKG1DUlKXENoOnH2Ax_-83" value="Tools Galore" style="whiteSpace=wrap;html=1;rounded=1;arcSize=50;align=center;verticalAlign=bottom;strokeWidth=1;autosize=1;spacing=4;treeFolding=1;treeMoving=1;newEdgeStyle={&quot;edgeStyle&quot;:&quot;entityRelationEdgeStyle&quot;,&quot;startArrow&quot;:&quot;none&quot;,&quot;endArrow&quot;:&quot;none&quot;,&quot;segment&quot;:10,&quot;curved&quot;:1,&quot;sourcePerimeterSpacing&quot;:0,&quot;targetPerimeterSpacing&quot;:0};fillColor=#e1d5e7;strokeColor=#9673a6;shape=partialRectangle;top=0;left=0;bottom=1;right=0;points=[[0,1],[1,1]];routingCenterY=0.5;snapToPoint=1;recursiveResize=0;" vertex="1" parent="QaKG1DUlKXENoOnH2Ax_-1">
          <mxGeometry x="1225" y="980" width="110" height="30" as="geometry" />
        </mxCell>
        <mxCell id="QaKG1DUlKXENoOnH2Ax_-88" value="" style="edgeStyle=entityRelationEdgeStyle;startArrow=none;endArrow=none;segment=10;curved=1;sourcePerimeterSpacing=0;targetPerimeterSpacing=0;rounded=0;noEdgeStyle=1;orthogonal=1;" edge="1" target="QaKG1DUlKXENoOnH2Ax_-89" source="QaKG1DUlKXENoOnH2Ax_-28" parent="QaKG1DUlKXENoOnH2Ax_-1">
          <mxGeometry relative="1" as="geometry">
            <mxPoint x="2030" y="665" as="sourcePoint" />
            <Array as="points">
              <mxPoint x="1448" y="923.75" />
              <mxPoint x="1372" y="875" />
            </Array>
          </mxGeometry>
        </mxCell>
        <mxCell id="QaKG1DUlKXENoOnH2Ax_-89" value="Having fun with words" style="whiteSpace=wrap;html=1;rounded=1;arcSize=50;align=center;verticalAlign=bottom;strokeWidth=1;autosize=1;spacing=4;treeFolding=1;treeMoving=1;newEdgeStyle={&quot;edgeStyle&quot;:&quot;entityRelationEdgeStyle&quot;,&quot;startArrow&quot;:&quot;none&quot;,&quot;endArrow&quot;:&quot;none&quot;,&quot;segment&quot;:10,&quot;curved&quot;:1,&quot;sourcePerimeterSpacing&quot;:0,&quot;targetPerimeterSpacing&quot;:0};fillColor=#e1d5e7;strokeColor=#9673a6;shape=partialRectangle;top=0;left=0;bottom=1;right=0;points=[[0,1],[1,1]];routingCenterY=0.5;snapToPoint=1;recursiveResize=0;" vertex="1" parent="QaKG1DUlKXENoOnH2Ax_-1">
          <mxGeometry x="1200" y="860" width="160" height="30" as="geometry" />
        </mxCell>
        <mxCell id="QaKG1DUlKXENoOnH2Ax_-11" value="" style="edgeStyle=entityRelationEdgeStyle;startArrow=none;endArrow=none;segment=10;curved=1;sourcePerimeterSpacing=0;targetPerimeterSpacing=0;rounded=0;" edge="1" target="QaKG1DUlKXENoOnH2Ax_-12" source="QaKG1DUlKXENoOnH2Ax_-6" parent="QaKG1DUlKXENoOnH2Ax_-1">
          <mxGeometry relative="1" as="geometry">
            <mxPoint x="3605" y="3205" as="sourcePoint" />
          </mxGeometry>
        </mxCell>
        <mxCell id="QaKG1DUlKXENoOnH2Ax_-12" value="Research" style="whiteSpace=wrap;html=1;rounded=1;arcSize=50;align=center;verticalAlign=middle;strokeWidth=1;autosize=1;spacing=4;treeFolding=1;treeMoving=1;newEdgeStyle={&quot;edgeStyle&quot;:&quot;entityRelationEdgeStyle&quot;,&quot;startArrow&quot;:&quot;none&quot;,&quot;endArrow&quot;:&quot;none&quot;,&quot;segment&quot;:10,&quot;curved&quot;:1,&quot;sourcePerimeterSpacing&quot;:0,&quot;targetPerimeterSpacing&quot;:0};fillColor=#fff2cc;strokeColor=#d6b656;" vertex="1" parent="QaKG1DUlKXENoOnH2Ax_-1">
          <mxGeometry x="1870" y="900" width="105" height="50" as="geometry" />
        </mxCell>
        <mxCell id="1TPRufiQtqwAdw8czUBt-18" value="" style="edgeStyle=entityRelationEdgeStyle;startArrow=none;endArrow=none;segment=10;curved=1;sourcePerimeterSpacing=0;targetPerimeterSpacing=0;rounded=0;" edge="1" target="1TPRufiQtqwAdw8czUBt-19" source="QaKG1DUlKXENoOnH2Ax_-12" parent="QaKG1DUlKXENoOnH2Ax_-1">
          <mxGeometry relative="1" as="geometry">
            <mxPoint x="1945" y="1205" as="sourcePoint" />
          </mxGeometry>
        </mxCell>
        <mxCell id="1TPRufiQtqwAdw8czUBt-19" value="Jekyll Google Analyics" style="whiteSpace=wrap;html=1;rounded=1;arcSize=50;align=center;verticalAlign=bottom;strokeWidth=1;autosize=1;spacing=4;treeFolding=1;treeMoving=1;newEdgeStyle={&quot;edgeStyle&quot;:&quot;entityRelationEdgeStyle&quot;,&quot;startArrow&quot;:&quot;none&quot;,&quot;endArrow&quot;:&quot;none&quot;,&quot;segment&quot;:10,&quot;curved&quot;:1,&quot;sourcePerimeterSpacing&quot;:0,&quot;targetPerimeterSpacing&quot;:0};fillColor=#fff2cc;strokeColor=#d6b656;shape=partialRectangle;top=0;left=0;bottom=1;right=0;points=[[0,1],[1,1]];routingCenterY=0.5;snapToPoint=1;recursiveResize=0;" vertex="1" parent="QaKG1DUlKXENoOnH2Ax_-1">
          <mxGeometry x="2050" y="880" width="160" height="30" as="geometry" />
        </mxCell>
        <mxCell id="QaKG1DUlKXENoOnH2Ax_-4" value="" style="edgeStyle=entityRelationEdgeStyle;startArrow=none;endArrow=none;segment=10;curved=1;sourcePerimeterSpacing=0;targetPerimeterSpacing=0;rounded=0;" edge="1" parent="QaKG1DUlKXENoOnH2Ax_-1" source="QaKG1DUlKXENoOnH2Ax_-6" target="QaKG1DUlKXENoOnH2Ax_-9">
          <mxGeometry relative="1" as="geometry" />
        </mxCell>
        <mxCell id="QaKG1DUlKXENoOnH2Ax_-9" value="Ideas" style="whiteSpace=wrap;html=1;rounded=1;arcSize=50;align=center;verticalAlign=middle;strokeWidth=1;autosize=1;spacing=4;treeFolding=1;treeMoving=1;newEdgeStyle={&quot;edgeStyle&quot;:&quot;entityRelationEdgeStyle&quot;,&quot;startArrow&quot;:&quot;none&quot;,&quot;endArrow&quot;:&quot;none&quot;,&quot;segment&quot;:10,&quot;curved&quot;:1,&quot;sourcePerimeterSpacing&quot;:0,&quot;targetPerimeterSpacing&quot;:0};fillColor=#f8cecc;strokeColor=#b85450;" vertex="1" parent="QaKG1DUlKXENoOnH2Ax_-1">
          <mxGeometry x="1440" y="1180" width="100" height="50" as="geometry" />
        </mxCell>
      </root>
    </mxGraphModel>
  </diagram>
  <diagram name="Complete" id="aHY13ylXTjuVEBx2b7ZM">
    <mxGraphModel dx="778" dy="1135" grid="1" gridSize="10" guides="1" tooltips="1" connect="1" arrows="1" fold="1" page="1" pageScale="1" pageWidth="3300" pageHeight="2339" math="0" shadow="0">
      <root>
        <mxCell id="6Cgf8ztG6M92fWn40Qze-0" />
        <mxCell id="6Cgf8ztG6M92fWn40Qze-1" parent="6Cgf8ztG6M92fWn40Qze-0" />
        <mxCell id="6Cgf8ztG6M92fWn40Qze-2" value="" style="swimlane;startSize=20;horizontal=1;containerType=tree;strokeColor=none;swimlaneHead=0;swimlaneBody=1;resizeWidth=0;fixedWidth=0;" vertex="1" parent="6Cgf8ztG6M92fWn40Qze-1">
          <mxGeometry width="3300" height="837" as="geometry">
            <mxRectangle x="190" y="520" width="50" height="40" as="alternateBounds" />
          </mxGeometry>
        </mxCell>
        <mxCell id="6Cgf8ztG6M92fWn40Qze-4" value="" style="edgeStyle=entityRelationEdgeStyle;startArrow=none;endArrow=none;segment=10;curved=1;sourcePerimeterSpacing=0;targetPerimeterSpacing=0;rounded=0;" edge="1" parent="6Cgf8ztG6M92fWn40Qze-2" source="6Cgf8ztG6M92fWn40Qze-5" target="6Cgf8ztG6M92fWn40Qze-7">
          <mxGeometry relative="1" as="geometry" />
        </mxCell>
        <mxCell id="6Cgf8ztG6M92fWn40Qze-5" value="Central Idea" style="ellipse;whiteSpace=wrap;html=1;align=center;treeFolding=1;treeMoving=1;newEdgeStyle={&quot;edgeStyle&quot;:&quot;entityRelationEdgeStyle&quot;,&quot;startArrow&quot;:&quot;none&quot;,&quot;endArrow&quot;:&quot;none&quot;,&quot;segment&quot;:10,&quot;curved&quot;:1,&quot;sourcePerimeterSpacing&quot;:0,&quot;targetPerimeterSpacing&quot;:0};fillColor=#dae8fc;strokeColor=#6c8ebf;" vertex="1" parent="6Cgf8ztG6M92fWn40Qze-2">
          <mxGeometry x="1210" y="750.8333333333334" width="120" height="60" as="geometry" />
        </mxCell>
        <mxCell id="6Cgf8ztG6M92fWn40Qze-7" value="Ideas" style="whiteSpace=wrap;html=1;rounded=1;arcSize=50;align=center;verticalAlign=middle;strokeWidth=1;autosize=1;spacing=4;treeFolding=1;treeMoving=1;newEdgeStyle={&quot;edgeStyle&quot;:&quot;entityRelationEdgeStyle&quot;,&quot;startArrow&quot;:&quot;none&quot;,&quot;endArrow&quot;:&quot;none&quot;,&quot;segment&quot;:10,&quot;curved&quot;:1,&quot;sourcePerimeterSpacing&quot;:0,&quot;targetPerimeterSpacing&quot;:0};fillColor=#f8cecc;strokeColor=#b85450;" vertex="1" parent="6Cgf8ztG6M92fWn40Qze-2">
          <mxGeometry x="1360" y="490" width="100" height="50" as="geometry" />
        </mxCell>
        <mxCell id="6Cgf8ztG6M92fWn40Qze-8" value="" style="edgeStyle=entityRelationEdgeStyle;startArrow=none;endArrow=none;segment=10;curved=1;sourcePerimeterSpacing=0;targetPerimeterSpacing=0;rounded=0;" edge="1" parent="6Cgf8ztG6M92fWn40Qze-2" source="6Cgf8ztG6M92fWn40Qze-5" target="6Cgf8ztG6M92fWn40Qze-9">
          <mxGeometry relative="1" as="geometry">
            <mxPoint x="1240" y="575" as="sourcePoint" />
          </mxGeometry>
        </mxCell>
        <mxCell id="6Cgf8ztG6M92fWn40Qze-9" value="Research" style="whiteSpace=wrap;html=1;rounded=1;arcSize=50;align=center;verticalAlign=middle;strokeWidth=1;autosize=1;spacing=4;treeFolding=1;treeMoving=1;newEdgeStyle={&quot;edgeStyle&quot;:&quot;entityRelationEdgeStyle&quot;,&quot;startArrow&quot;:&quot;none&quot;,&quot;endArrow&quot;:&quot;none&quot;,&quot;segment&quot;:10,&quot;curved&quot;:1,&quot;sourcePerimeterSpacing&quot;:0,&quot;targetPerimeterSpacing&quot;:0};fillColor=#fff2cc;strokeColor=#d6b656;" vertex="1" parent="6Cgf8ztG6M92fWn40Qze-2">
          <mxGeometry x="1360" y="580" width="105" height="50" as="geometry" />
        </mxCell>
        <mxCell id="6Cgf8ztG6M92fWn40Qze-10" value="" style="edgeStyle=entityRelationEdgeStyle;startArrow=none;endArrow=none;segment=10;curved=1;sourcePerimeterSpacing=0;targetPerimeterSpacing=0;rounded=0;" edge="1" parent="6Cgf8ztG6M92fWn40Qze-2" source="6Cgf8ztG6M92fWn40Qze-5" target="6Cgf8ztG6M92fWn40Qze-11">
          <mxGeometry relative="1" as="geometry">
            <mxPoint x="1350" y="705" as="sourcePoint" />
          </mxGeometry>
        </mxCell>
        <mxCell id="6Cgf8ztG6M92fWn40Qze-11" value="Books" style="whiteSpace=wrap;html=1;rounded=1;arcSize=50;align=center;verticalAlign=middle;strokeWidth=1;autosize=1;spacing=4;treeFolding=1;treeMoving=1;newEdgeStyle={&quot;edgeStyle&quot;:&quot;entityRelationEdgeStyle&quot;,&quot;startArrow&quot;:&quot;none&quot;,&quot;endArrow&quot;:&quot;none&quot;,&quot;segment&quot;:10,&quot;curved&quot;:1,&quot;sourcePerimeterSpacing&quot;:0,&quot;targetPerimeterSpacing&quot;:0};fillColor=#f5f5f5;strokeColor=#666666;fontColor=#333333;" vertex="1" parent="6Cgf8ztG6M92fWn40Qze-2">
          <mxGeometry x="1360" y="670" width="105" height="50" as="geometry" />
        </mxCell>
        <mxCell id="6Cgf8ztG6M92fWn40Qze-12" value="" style="edgeStyle=entityRelationEdgeStyle;startArrow=none;endArrow=none;segment=10;curved=1;sourcePerimeterSpacing=0;targetPerimeterSpacing=0;rounded=0;" edge="1" parent="6Cgf8ztG6M92fWn40Qze-2" source="6Cgf8ztG6M92fWn40Qze-5" target="6Cgf8ztG6M92fWn40Qze-13">
          <mxGeometry relative="1" as="geometry">
            <mxPoint x="1350" y="705" as="sourcePoint" />
          </mxGeometry>
        </mxCell>
        <mxCell id="6Cgf8ztG6M92fWn40Qze-13" value="TIWIL" style="whiteSpace=wrap;html=1;rounded=1;arcSize=50;align=center;verticalAlign=middle;strokeWidth=1;autosize=1;spacing=4;treeFolding=1;treeMoving=1;newEdgeStyle={&quot;edgeStyle&quot;:&quot;entityRelationEdgeStyle&quot;,&quot;startArrow&quot;:&quot;none&quot;,&quot;endArrow&quot;:&quot;none&quot;,&quot;segment&quot;:10,&quot;curved&quot;:1,&quot;sourcePerimeterSpacing&quot;:0,&quot;targetPerimeterSpacing&quot;:0};fillColor=#d5e8d4;strokeColor=#82b366;flipH=0;flipV=1;" vertex="1" parent="6Cgf8ztG6M92fWn40Qze-2">
          <mxGeometry x="1360" y="760" width="125" height="45" as="geometry" />
        </mxCell>
        <mxCell id="6Cgf8ztG6M92fWn40Qze-36" value="Blogs" style="whiteSpace=wrap;html=1;rounded=1;arcSize=50;align=center;verticalAlign=middle;strokeWidth=1;autosize=1;spacing=4;treeFolding=1;treeMoving=1;newEdgeStyle={&quot;edgeStyle&quot;:&quot;entityRelationEdgeStyle&quot;,&quot;startArrow&quot;:&quot;none&quot;,&quot;endArrow&quot;:&quot;none&quot;,&quot;segment&quot;:10,&quot;curved&quot;:1,&quot;sourcePerimeterSpacing&quot;:0,&quot;targetPerimeterSpacing&quot;:0};fillColor=#e1d5e7;strokeColor=#9673a6;" vertex="1" parent="6Cgf8ztG6M92fWn40Qze-2">
          <mxGeometry x="1360" y="845" width="105" height="50" as="geometry" />
        </mxCell>
        <mxCell id="6Cgf8ztG6M92fWn40Qze-45" value="" style="edgeStyle=entityRelationEdgeStyle;startArrow=none;endArrow=none;segment=10;curved=1;sourcePerimeterSpacing=0;targetPerimeterSpacing=0;rounded=0;" edge="1" parent="6Cgf8ztG6M92fWn40Qze-2" source="6Cgf8ztG6M92fWn40Qze-5" target="6Cgf8ztG6M92fWn40Qze-36">
          <mxGeometry relative="1" as="geometry">
            <mxPoint x="1350" y="705" as="sourcePoint" />
          </mxGeometry>
        </mxCell>
        <mxCell id="L6uls4fN3x1RkwN-7Z8R-3" value="New Words" style="whiteSpace=wrap;html=1;rounded=1;arcSize=50;align=center;verticalAlign=middle;strokeWidth=1;autosize=1;spacing=4;treeFolding=1;treeMoving=1;newEdgeStyle={&quot;edgeStyle&quot;:&quot;entityRelationEdgeStyle&quot;,&quot;startArrow&quot;:&quot;none&quot;,&quot;endArrow&quot;:&quot;none&quot;,&quot;segment&quot;:10,&quot;curved&quot;:1,&quot;sourcePerimeterSpacing&quot;:0,&quot;targetPerimeterSpacing&quot;:0};fillColor=#ffe6cc;strokeColor=#d79b00;" vertex="1" parent="6Cgf8ztG6M92fWn40Qze-2">
          <mxGeometry x="1360" y="1021.6666666666667" width="125" height="50" as="geometry" />
        </mxCell>
        <mxCell id="L6uls4fN3x1RkwN-7Z8R-2" value="" style="edgeStyle=entityRelationEdgeStyle;startArrow=none;endArrow=none;segment=10;curved=1;sourcePerimeterSpacing=0;targetPerimeterSpacing=0;rounded=0;noEdgeStyle=1;orthogonal=1;" edge="1" parent="6Cgf8ztG6M92fWn40Qze-2" source="L6uls4fN3x1RkwN-7Z8R-3" target="L6uls4fN3x1RkwN-7Z8R-1">
          <mxGeometry relative="1" as="geometry">
            <mxPoint x="1450" y="460" as="sourcePoint" />
          </mxGeometry>
        </mxCell>
        <mxCell id="L6uls4fN3x1RkwN-7Z8R-1" value="Red herring" style="whiteSpace=wrap;html=1;rounded=1;arcSize=50;align=center;verticalAlign=bottom;strokeWidth=1;autosize=1;spacing=4;treeFolding=1;treeMoving=1;newEdgeStyle={&quot;edgeStyle&quot;:&quot;entityRelationEdgeStyle&quot;,&quot;startArrow&quot;:&quot;none&quot;,&quot;endArrow&quot;:&quot;none&quot;,&quot;segment&quot;:10,&quot;curved&quot;:1,&quot;sourcePerimeterSpacing&quot;:0,&quot;targetPerimeterSpacing&quot;:0};fillColor=#ffe6cc;strokeColor=#d79b00;shape=partialRectangle;top=0;left=0;bottom=1;right=0;points=[[0,1],[1,1]];routingCenterY=0.5;snapToPoint=1;recursiveResize=0;" vertex="1" parent="6Cgf8ztG6M92fWn40Qze-2">
          <mxGeometry x="1515" y="891.6666666666667" width="110" height="30" as="geometry" />
        </mxCell>
        <mxCell id="L6uls4fN3x1RkwN-7Z8R-4" value="" style="edgeStyle=entityRelationEdgeStyle;startArrow=none;endArrow=none;segment=10;curved=1;sourcePerimeterSpacing=0;targetPerimeterSpacing=0;rounded=0;noEdgeStyle=1;orthogonal=1;" edge="1" parent="6Cgf8ztG6M92fWn40Qze-2" source="L6uls4fN3x1RkwN-7Z8R-3" target="L6uls4fN3x1RkwN-7Z8R-5">
          <mxGeometry relative="1" as="geometry">
            <mxPoint x="1495" y="650" as="sourcePoint" />
          </mxGeometry>
        </mxCell>
        <mxCell id="L6uls4fN3x1RkwN-7Z8R-5" value="Minutia" style="whiteSpace=wrap;html=1;rounded=1;arcSize=50;align=center;verticalAlign=bottom;strokeWidth=1;autosize=1;spacing=4;treeFolding=1;treeMoving=1;newEdgeStyle={&quot;edgeStyle&quot;:&quot;entityRelationEdgeStyle&quot;,&quot;startArrow&quot;:&quot;none&quot;,&quot;endArrow&quot;:&quot;none&quot;,&quot;segment&quot;:10,&quot;curved&quot;:1,&quot;sourcePerimeterSpacing&quot;:0,&quot;targetPerimeterSpacing&quot;:0};fillColor=#ffe6cc;strokeColor=#d79b00;shape=partialRectangle;top=0;left=0;bottom=1;right=0;points=[[0,1],[1,1]];routingCenterY=0.5;snapToPoint=1;recursiveResize=0;" vertex="1" parent="6Cgf8ztG6M92fWn40Qze-2">
          <mxGeometry x="1515" y="961.6666666666667" width="80" height="30" as="geometry" />
        </mxCell>
        <mxCell id="L6uls4fN3x1RkwN-7Z8R-6" value="" style="edgeStyle=entityRelationEdgeStyle;startArrow=none;endArrow=none;segment=10;curved=1;sourcePerimeterSpacing=0;targetPerimeterSpacing=0;rounded=0;noEdgeStyle=1;orthogonal=1;" edge="1" parent="6Cgf8ztG6M92fWn40Qze-2" source="L6uls4fN3x1RkwN-7Z8R-3" target="L6uls4fN3x1RkwN-7Z8R-7">
          <mxGeometry relative="1" as="geometry">
            <mxPoint x="1495" y="650" as="sourcePoint" />
          </mxGeometry>
        </mxCell>
        <mxCell id="L6uls4fN3x1RkwN-7Z8R-7" value="Au courant" style="whiteSpace=wrap;html=1;rounded=1;arcSize=50;align=center;verticalAlign=bottom;strokeWidth=1;autosize=1;spacing=4;treeFolding=1;treeMoving=1;newEdgeStyle={&quot;edgeStyle&quot;:&quot;entityRelationEdgeStyle&quot;,&quot;startArrow&quot;:&quot;none&quot;,&quot;endArrow&quot;:&quot;none&quot;,&quot;segment&quot;:10,&quot;curved&quot;:1,&quot;sourcePerimeterSpacing&quot;:0,&quot;targetPerimeterSpacing&quot;:0};fillColor=#ffe6cc;strokeColor=#d79b00;shape=partialRectangle;top=0;left=0;bottom=1;right=0;points=[[0,1],[1,1]];routingCenterY=0.5;snapToPoint=1;recursiveResize=0;" vertex="1" parent="6Cgf8ztG6M92fWn40Qze-2">
          <mxGeometry x="1515" y="1031.6666666666667" width="100" height="30" as="geometry" />
        </mxCell>
        <mxCell id="L6uls4fN3x1RkwN-7Z8R-8" value="" style="edgeStyle=entityRelationEdgeStyle;startArrow=none;endArrow=none;segment=10;curved=1;sourcePerimeterSpacing=0;targetPerimeterSpacing=0;rounded=0;noEdgeStyle=1;orthogonal=1;" edge="1" parent="6Cgf8ztG6M92fWn40Qze-2" source="L6uls4fN3x1RkwN-7Z8R-3" target="L6uls4fN3x1RkwN-7Z8R-9">
          <mxGeometry relative="1" as="geometry">
            <mxPoint x="1495" y="650" as="sourcePoint" />
          </mxGeometry>
        </mxCell>
        <mxCell id="L6uls4fN3x1RkwN-7Z8R-9" value="Penchant" style="whiteSpace=wrap;html=1;rounded=1;arcSize=50;align=center;verticalAlign=bottom;strokeWidth=1;autosize=1;spacing=4;treeFolding=1;treeMoving=1;newEdgeStyle={&quot;edgeStyle&quot;:&quot;entityRelationEdgeStyle&quot;,&quot;startArrow&quot;:&quot;none&quot;,&quot;endArrow&quot;:&quot;none&quot;,&quot;segment&quot;:10,&quot;curved&quot;:1,&quot;sourcePerimeterSpacing&quot;:0,&quot;targetPerimeterSpacing&quot;:0};fillColor=#ffe6cc;strokeColor=#d79b00;shape=partialRectangle;top=0;left=0;bottom=1;right=0;points=[[0,1],[1,1]];routingCenterY=0.5;snapToPoint=1;recursiveResize=0;" vertex="1" parent="6Cgf8ztG6M92fWn40Qze-2">
          <mxGeometry x="1515" y="1101.6666666666667" width="100" height="30" as="geometry" />
        </mxCell>
        <mxCell id="L6uls4fN3x1RkwN-7Z8R-10" value="" style="edgeStyle=entityRelationEdgeStyle;startArrow=none;endArrow=none;segment=10;curved=1;sourcePerimeterSpacing=0;targetPerimeterSpacing=0;rounded=0;noEdgeStyle=1;orthogonal=1;" edge="1" parent="6Cgf8ztG6M92fWn40Qze-2" source="L6uls4fN3x1RkwN-7Z8R-3" target="L6uls4fN3x1RkwN-7Z8R-11">
          <mxGeometry relative="1" as="geometry">
            <mxPoint x="1495" y="650" as="sourcePoint" />
          </mxGeometry>
        </mxCell>
        <mxCell id="L6uls4fN3x1RkwN-7Z8R-11" value="Unremittingly" style="whiteSpace=wrap;html=1;rounded=1;arcSize=50;align=center;verticalAlign=bottom;strokeWidth=1;autosize=1;spacing=4;treeFolding=1;treeMoving=1;newEdgeStyle={&quot;edgeStyle&quot;:&quot;entityRelationEdgeStyle&quot;,&quot;startArrow&quot;:&quot;none&quot;,&quot;endArrow&quot;:&quot;none&quot;,&quot;segment&quot;:10,&quot;curved&quot;:1,&quot;sourcePerimeterSpacing&quot;:0,&quot;targetPerimeterSpacing&quot;:0};fillColor=#ffe6cc;strokeColor=#d79b00;shape=partialRectangle;top=0;left=0;bottom=1;right=0;points=[[0,1],[1,1]];routingCenterY=0.5;snapToPoint=1;recursiveResize=0;" vertex="1" parent="6Cgf8ztG6M92fWn40Qze-2">
          <mxGeometry x="1515" y="1171.6666666666667" width="110" height="30" as="geometry" />
        </mxCell>
        <mxCell id="L6uls4fN3x1RkwN-7Z8R-0" value="" style="edgeStyle=entityRelationEdgeStyle;startArrow=none;endArrow=none;segment=10;curved=1;sourcePerimeterSpacing=0;targetPerimeterSpacing=0;rounded=0;" edge="1" parent="6Cgf8ztG6M92fWn40Qze-2" target="L6uls4fN3x1RkwN-7Z8R-3" source="6Cgf8ztG6M92fWn40Qze-5">
          <mxGeometry relative="1" as="geometry">
            <mxPoint x="1340" y="530" as="sourcePoint" />
          </mxGeometry>
        </mxCell>
      </root>
    </mxGraphModel>
  </diagram>
</mxfile>
